ffmpeg started on 2025-05-12 at 16:25:44
Report written to "D:\Convert\FFMetrics\reports\psnr_report-6.txt"
Log level: 32
Command line:
ffmpeg -hide_banner -nostdin -i "G:\\\xc0\xed\xe8\xec\xe5\\\xce\xed\xe3\xee\xe8\xed\xe3\xe8\\!_35_\xcb\xe5\xf2\xee_2024\\DreamCast\\\xcc\xee\xff \xef\xee\xe4\xf0\xf3\xe3\xe0-\xee\xeb\xe5\xed\xe8\xf5\xe0, \xcd\xee\xea\xee\xf2\xe0\xed\\[DC] Shikanoko Nokonoko Koshitantan - 02_Telegram_HEVC.mkv" -i "G:\\\xc0\xed\xe8\xec\xe5\\\xce\xed\xe3\xee\xe8\xed\xe3\xe8\\!_35_\xcb\xe5\xf2\xee_2024\\DreamCast\\\xcc\xee\xff \xef\xee\xe4\xf0\xf3\xe3\xe0-\xee\xeb\xe5\xed\xe8\xf5\xe0, \xcd\xee\xea\xee\xf2\xe0\xed\\[DC] Shikanoko Nokonoko Koshitantan - 02_Telegram.mp4" -lavfi "[0:v]settb=AVTB,setpts=PTS-STARTPTS,format=pix_fmts=yuv420p10,fps=24000/1001,scale=1920:1080:flags=bicubic[main];[1:v]settb=AVTB,setpts=PTS-STARTPTS,format=pix_fmts=yuv420p,fps=24000/1001,scale=1920:1080:flags=bicubic[ref];[main][ref]psnr=eof_action=endall:stats_file='D\\:/Convert/FFMetrics/logs/psnr_logfile-6.txt'" -f null -
Input #0, matroska,webm, from 'G:\Аниме\Онгоинги\!_35_Лето_2024\DreamCast\Моя подруга-олениха, Нокотан\[DC] Shikanoko Nokonoko Koshitantan - 02_Telegram_HEVC.mkv':
  Metadata:
    COMPATIBLE_BRANDS: isomiso2avc1mp41
    MAJOR_BRAND     : isom
    MINOR_VERSION   : 512
    ENCODER         : Lavf61.7.100
  Duration: 00:23:41.70, start: -0.021000, bitrate: 1795 kb/s
  Stream #0:0: Video: hevc (Main 10), yuv420p10le(tv, bt709, progressive), 1920x1080 [SAR 1:1 DAR 16:9], 23.98 fps, 23.98 tbr, 1k tbn (default)
      Metadata:
        HANDLER_NAME    : VideoHandler
        VENDOR_ID       : [0][0][0][0]
        ENCODER         : Lavc61.19.100 libx265
        BPS             : 1597419
        DURATION        : 00:23:41.628708333
        NUMBER_OF_FRAMES: 34085
        NUMBER_OF_BYTES : 283867094
        _STATISTICS_WRITING_APP: mkvpropedit v66.0.0 ('Josie') 64-bit
        _STATISTICS_WRITING_DATE_UTC: 2025-05-08 09:59:43
        _STATISTICS_TAGS: BPS DURATION NUMBER_OF_FRAMES NUMBER_OF_BYTES
  Stream #0:1: Audio: aac (LC), 48000 Hz, stereo, fltp (default)
      Metadata:
        HANDLER_NAME    : SoundHandler
        VENDOR_ID       : [0][0][0][0]
        ENCODER         : Lavc61.19.100 aac
        BPS             : 193881
        DURATION        : 00:23:41.696000000
        NUMBER_OF_FRAMES: 66643
        NUMBER_OF_BYTES : 34455128
        _STATISTICS_WRITING_APP: mkvpropedit v66.0.0 ('Josie') 64-bit
        _STATISTICS_WRITING_DATE_UTC: 2025-05-08 09:59:43
        _STATISTICS_TAGS: BPS DURATION NUMBER_OF_FRAMES NUMBER_OF_BYTES
Input #1, mov,mp4,m4a,3gp,3g2,mj2, from 'G:\Аниме\Онгоинги\!_35_Лето_2024\DreamCast\Моя подруга-олениха, Нокотан\[DC] Shikanoko Nokonoko Koshitantan - 02_Telegram.mp4':
  Metadata:
    major_brand     : isom
    minor_version   : 512
    compatible_brands: isomiso2avc1mp41
    encoder         : Lavf61.1.100
  Duration: 00:23:41.67, start: 0.000000, bitrate: 3672 kb/s
  Stream #1:0[0x1](und): Video: h264 (High) (avc1 / 0x31637661), yuv420p(tv, bt709, progressive), 1920x1080 [SAR 1:1 DAR 16:9], 3524 kb/s, 23.98 fps, 23.98 tbr, 24k tbn (default)
      Metadata:
        handler_name    : VideoHandler
        vendor_id       : [0][0][0][0]
        encoder         : Lavc61.3.100 h264_qsv
  Stream #1:1[0x2](und): Audio: aac (HE-AACv2) (mp4a / 0x6134706D), 48000 Hz, stereo, fltp, 144 kb/s (default)
      Metadata:
        handler_name    : SoundHandler
        vendor_id       : [0][0][0][0]
Stream mapping:
  Stream #0:0 (hevc) -> settb:default
  Stream #1:0 (h264) -> settb:default
  psnr:default -> Stream #0:0 (wrapped_avframe)
  Stream #0:1 -> #0:1 (aac (native) -> pcm_s16le (native))
Output #0, null, to 'pipe:':
  Metadata:
    COMPATIBLE_BRANDS: isomiso2avc1mp41
    MAJOR_BRAND     : isom
    MINOR_VERSION   : 512
    encoder         : Lavf61.7.100
  Stream #0:0: Video: wrapped_avframe, yuv420p10le(tv, bt709, progressive), 1920x1080 [SAR 1:1 DAR 16:9], q=2-31, 200 kb/s, 23.98 fps, 23.98 tbn
      Metadata:
        encoder         : Lavc61.19.100 wrapped_avframe
  Stream #0:1: Audio: pcm_s16le, 48000 Hz, stereo, s16, 1536 kb/s (default)
      Metadata:
        HANDLER_NAME    : SoundHandler
        VENDOR_ID       : [0][0][0][0]
        _STATISTICS_TAGS: BPS DURATION NUMBER_OF_FRAMES NUMBER_OF_BYTES
        BPS             : 193881
        DURATION        : 00:23:41.696000000
        NUMBER_OF_FRAMES: 66643
        NUMBER_OF_BYTES : 34455128
        _STATISTICS_WRITING_APP: mkvpropedit v66.0.0 ('Josie') 64-bit
        _STATISTICS_WRITING_DATE_UTC: 2025-05-08 09:59:43
        encoder         : Lavc61.19.100 pcm_s16le
frame=  168 fps=0.0 q=-0.0 size=N/A time=00:00:07.00 bitrate=N/A speed=13.5x    frame=  396 fps=386 q=-0.0 size=N/A time=00:00:16.51 bitrate=N/A speed=16.1x    frame=  678 fps=438 q=-0.0 size=N/A time=00:00:28.27 bitrate=N/A speed=18.3x    frame=  917 fps=447 q=-0.0 size=N/A time=00:00:38.24 bitrate=N/A speed=18.7x    frame= 1086 fps=422 q=-0.0 size=N/A time=00:00:45.29 bitrate=N/A speed=17.6x    frame= 1263 fps=410 q=-0.0 size=N/A time=00:00:52.67 bitrate=N/A speed=17.1x    frame= 1473 fps=409 q=-0.0 size=N/A time=00:01:01.43 bitrate=N/A speed=  17x    frame= 1674 fps=407 q=-0.0 size=N/A time=00:01:09.81 bitrate=N/A speed=  17x    frame= 1899 fps=410 q=-0.0 size=N/A time=00:01:19.20 bitrate=N/A speed=17.1x    frame= 2112 fps=409 q=-0.0 size=N/A time=00:01:28.08 bitrate=N/A speed=17.1x    frame= 2328 fps=411 q=-0.0 size=N/A time=00:01:37.09 bitrate=N/A speed=17.1x    frame= 2498 fps=404 q=-0.0 size=N/A time=00:01:44.18 bitrate=N/A speed=16.8x    frame= 2723 fps=407 q=-0.0 size=N/A time=00:01:53.57 bitrate=N/A speed=  17x    frame= 2900 fps=402 q=-0.0 size=N/A time=00:02:00.95 bitrate=N/A speed=16.8x    frame= 3136 fps=405 q=-0.0 size=N/A time=00:02:10.79 bitrate=N/A speed=16.9x    frame= 3372 fps=408 q=-0.0 size=N/A time=00:02:20.64 bitrate=N/A speed=  17x    frame= 3620 fps=412 q=-0.0 size=N/A time=00:02:30.98 bitrate=N/A speed=17.2x    frame= 3852 fps=414 q=-0.0 size=N/A time=00:02:40.66 bitrate=N/A speed=17.2x    frame= 4064 fps=414 q=-0.0 size=N/A time=00:02:49.50 bitrate=N/A speed=17.3x    frame= 4259 fps=412 q=-0.0 size=N/A time=00:02:57.63 bitrate=N/A speed=17.2x    frame= 4466 fps=412 q=-0.0 size=N/A time=00:03:06.26 bitrate=N/A speed=17.2x    frame= 4697 fps=413 q=-0.0 size=N/A time=00:03:15.90 bitrate=N/A speed=17.2x    frame= 4929 fps=415 q=-0.0 size=N/A time=00:03:25.58 bitrate=N/A speed=17.3x    frame= 5135 fps=414 q=-0.0 size=N/A time=00:03:34.17 bitrate=N/A speed=17.3x    frame= 5366 fps=416 q=-0.0 size=N/A time=00:03:43.80 bitrate=N/A speed=17.3x    frame= 5554 fps=413 q=-0.0 size=N/A time=00:03:51.64 bitrate=N/A speed=17.2x    frame= 5741 fps=412 q=-0.0 size=N/A time=00:03:59.44 bitrate=N/A speed=17.2x    frame= 6019 fps=416 q=-0.0 size=N/A time=00:04:11.04 bitrate=N/A speed=17.4x    frame= 6287 fps=420 q=-0.0 size=N/A time=00:04:22.22 bitrate=N/A speed=17.5x    frame= 6539 fps=422 q=-0.0 size=N/A time=00:04:32.73 bitrate=N/A speed=17.6x    frame= 6788 fps=424 q=-0.0 size=N/A time=00:04:43.11 bitrate=N/A speed=17.7x    frame= 6997 fps=423 q=-0.0 size=N/A time=00:04:51.83 bitrate=N/A speed=17.7x    frame= 7271 fps=427 q=-0.0 size=N/A time=00:05:03.26 bitrate=N/A speed=17.8x    frame= 7531 fps=429 q=-0.0 size=N/A time=00:05:14.10 bitrate=N/A speed=17.9x    frame= 7777 fps=430 q=-0.0 size=N/A time=00:05:24.36 bitrate=N/A speed=17.9x    frame= 8033 fps=432 q=-0.0 size=N/A time=00:05:35.04 bitrate=N/A speed=  18x    frame= 8265 fps=433 q=-0.0 size=N/A time=00:05:44.71 bitrate=N/A speed=  18x    frame= 8486 fps=433 q=-0.0 size=N/A time=00:05:53.93 bitrate=N/A speed=  18x    frame= 8678 fps=431 q=-0.0 size=N/A time=00:06:01.94 bitrate=N/A speed=  18x    frame= 8862 fps=429 q=-0.0 size=N/A time=00:06:09.61 bitrate=N/A speed=17.9x    frame= 9082 fps=429 q=-0.0 size=N/A time=00:06:18.79 bitrate=N/A speed=17.9x    frame= 9322 fps=430 q=-0.0 size=N/A time=00:06:28.80 bitrate=N/A speed=17.9x    frame= 9528 fps=429 q=-0.0 size=N/A time=00:06:37.39 bitrate=N/A speed=17.9x    frame= 9760 fps=430 q=-0.0 size=N/A time=00:06:47.07 bitrate=N/A speed=17.9x    frame=10015 fps=431 q=-0.0 size=N/A time=00:06:57.70 bitrate=N/A speed=  18x    frame=10245 fps=432 q=-0.0 size=N/A time=00:07:07.30 bitrate=N/A speed=  18x    frame=10488 fps=432 q=-0.0 size=N/A time=00:07:17.43 bitrate=N/A speed=  18x    frame=10710 fps=432 q=-0.0 size=N/A time=00:07:26.69 bitrate=N/A speed=  18x    frame=10923 fps=432 q=-0.0 size=N/A time=00:07:35.58 bitrate=N/A speed=  18x    frame=11159 fps=432 q=-0.0 size=N/A time=00:07:45.42 bitrate=N/A speed=  18x    frame=11385 fps=433 q=-0.0 size=N/A time=00:07:54.84 bitrate=N/A speed=  18x    frame=11641 fps=434 q=-0.0 size=N/A time=00:08:05.52 bitrate=N/A speed=18.1x    frame=11903 fps=435 q=-0.0 size=N/A time=00:08:16.45 bitrate=N/A speed=18.2x    frame=12152 fps=436 q=-0.0 size=N/A time=00:08:26.83 bitrate=N/A speed=18.2x    frame=12375 fps=436 q=-0.0 size=N/A time=00:08:36.14 bitrate=N/A speed=18.2x    frame=12641 fps=437 q=-0.0 size=N/A time=00:08:47.23 bitrate=N/A speed=18.2x    frame=12879 fps=438 q=-0.0 size=N/A time=00:08:57.16 bitrate=N/A speed=18.3x    frame=13115 fps=438 q=-0.0 size=N/A time=00:09:07.00 bitrate=N/A speed=18.3x    frame=13339 fps=438 q=-0.0 size=N/A time=00:09:16.34 bitrate=N/A speed=18.3x    frame=13591 fps=439 q=-0.0 size=N/A time=00:09:26.85 bitrate=N/A speed=18.3x    frame=13795 fps=438 q=-0.0 size=N/A time=00:09:35.36 bitrate=N/A speed=18.3x    frame=13973 fps=437 q=-0.0 size=N/A time=00:09:42.79 bitrate=N/A speed=18.2x    frame=14143 fps=435 q=-0.0 size=N/A time=00:09:49.88 bitrate=N/A speed=18.1x    frame=14316 fps=434 q=-0.0 size=N/A time=00:09:57.09 bitrate=N/A speed=18.1x    frame=14512 fps=433 q=-0.0 size=N/A time=00:10:05.27 bitrate=N/A speed=  18x    frame=14712 fps=432 q=-0.0 size=N/A time=00:10:13.61 bitrate=N/A speed=  18x    frame=14925 fps=432 q=-0.0 size=N/A time=00:10:22.49 bitrate=N/A speed=  18x    frame=15148 fps=432 q=-0.0 size=N/A time=00:10:31.79 bitrate=N/A speed=  18x    frame=15356 fps=431 q=-0.0 size=N/A time=00:10:40.47 bitrate=N/A speed=  18x    frame=15551 fps=430 q=-0.0 size=N/A time=00:10:48.60 bitrate=N/A speed=  18x    frame=15706 fps=429 q=-0.0 size=N/A time=00:10:55.07 bitrate=N/A speed=17.9x    frame=15902 fps=428 q=-0.0 size=N/A time=00:11:03.24 bitrate=N/A speed=17.8x    frame=16129 fps=428 q=-0.0 size=N/A time=00:11:12.71 bitrate=N/A speed=17.9x    frame=16387 fps=429 q=-0.0 size=N/A time=00:11:23.47 bitrate=N/A speed=17.9x    frame=16654 fps=430 q=-0.0 size=N/A time=00:11:34.61 bitrate=N/A speed=  18x    frame=16886 fps=431 q=-0.0 size=N/A time=00:11:44.28 bitrate=N/A speed=  18x    frame=17148 fps=432 q=-0.0 size=N/A time=00:11:55.21 bitrate=N/A speed=  18x    frame=17426 fps=433 q=-0.0 size=N/A time=00:12:06.80 bitrate=N/A speed=18.1x    frame=17686 fps=434 q=-0.0 size=N/A time=00:12:17.65 bitrate=N/A speed=18.1x    frame=17926 fps=434 q=-0.0 size=N/A time=00:12:27.66 bitrate=N/A speed=18.1x    frame=18172 fps=435 q=-0.0 size=N/A time=00:12:37.92 bitrate=N/A speed=18.1x    frame=18420 fps=435 q=-0.0 size=N/A time=00:12:48.26 bitrate=N/A speed=18.2x    frame=18667 fps=436 q=-0.0 size=N/A time=00:12:58.56 bitrate=N/A speed=18.2x    frame=18899 fps=436 q=-0.0 size=N/A time=00:13:08.24 bitrate=N/A speed=18.2x    frame=19144 fps=436 q=-0.0 size=N/A time=00:13:18.46 bitrate=N/A speed=18.2x    frame=19311 fps=435 q=-0.0 size=N/A time=00:13:25.42 bitrate=N/A speed=18.1x    frame=19525 fps=435 q=-0.0 size=N/A time=00:13:34.35 bitrate=N/A speed=18.1x    frame=19787 fps=436 q=-0.0 size=N/A time=00:13:45.28 bitrate=N/A speed=18.2x    frame=20055 fps=437 q=-0.0 size=N/A time=00:13:56.46 bitrate=N/A speed=18.2x    frame=20324 fps=438 q=-0.0 size=N/A time=00:14:07.68 bitrate=N/A speed=18.3x    frame=20600 fps=439 q=-0.0 size=N/A time=00:14:19.19 bitrate=N/A speed=18.3x    frame=20850 fps=439 q=-0.0 size=N/A time=00:14:29.61 bitrate=N/A speed=18.3x    frame=21116 fps=440 q=-0.0 size=N/A time=00:14:40.71 bitrate=N/A speed=18.3x    frame=21385 fps=441 q=-0.0 size=N/A time=00:14:51.93 bitrate=N/A speed=18.4x    frame=21620 fps=441 q=-0.0 size=N/A time=00:15:01.73 bitrate=N/A speed=18.4x    frame=21883 fps=442 q=-0.0 size=N/A time=00:15:12.70 bitrate=N/A speed=18.4x    frame=22143 fps=442 q=-0.0 size=N/A time=00:15:23.54 bitrate=N/A speed=18.4x    frame=22414 fps=443 q=-0.0 size=N/A time=00:15:34.85 bitrate=N/A speed=18.5x    frame=22634 fps=443 q=-0.0 size=N/A time=00:15:44.02 bitrate=N/A speed=18.5x    frame=22883 fps=443 q=-0.0 size=N/A time=00:15:54.41 bitrate=N/A speed=18.5x    frame=23153 fps=444 q=-0.0 size=N/A time=00:16:05.67 bitrate=N/A speed=18.5x    frame=23424 fps=445 q=-0.0 size=N/A time=00:16:16.97 bitrate=N/A speed=18.6x    frame=23692 fps=446 q=-0.0 size=N/A time=00:16:28.15 bitrate=N/A speed=18.6x    frame=23962 fps=446 q=-0.0 size=N/A time=00:16:39.41 bitrate=N/A speed=18.6x    frame=24191 fps=446 q=-0.0 size=N/A time=00:16:48.96 bitrate=N/A speed=18.6x    frame=24387 fps=446 q=-0.0 size=N/A time=00:16:57.14 bitrate=N/A speed=18.6x    frame=24593 fps=445 q=-0.0 size=N/A time=00:17:05.73 bitrate=N/A speed=18.6x    frame=24809 fps=445 q=-0.0 size=N/A time=00:17:14.74 bitrate=N/A speed=18.6x    frame=25059 fps=445 q=-0.0 size=N/A time=00:17:25.16 bitrate=N/A speed=18.6x    frame=25326 fps=446 q=-0.0 size=N/A time=00:17:36.30 bitrate=N/A speed=18.6x    frame=25449 fps=444 q=-0.0 size=N/A time=00:17:41.43 bitrate=N/A speed=18.5x    frame=25651 fps=444 q=-0.0 size=N/A time=00:17:49.86 bitrate=N/A speed=18.5x    frame=25836 fps=443 q=-0.0 size=N/A time=00:17:57.57 bitrate=N/A speed=18.5x    frame=26071 fps=443 q=-0.0 size=N/A time=00:18:07.37 bitrate=N/A speed=18.5x    frame=26287 fps=443 q=-0.0 size=N/A time=00:18:16.38 bitrate=N/A speed=18.5x    frame=26498 fps=443 q=-0.0 size=N/A time=00:18:25.18 bitrate=N/A speed=18.5x    frame=26716 fps=442 q=-0.0 size=N/A time=00:18:34.27 bitrate=N/A speed=18.5x    frame=26919 fps=442 q=-0.0 size=N/A time=00:18:42.74 bitrate=N/A speed=18.4x    frame=27156 fps=442 q=-0.0 size=N/A time=00:18:52.63 bitrate=N/A speed=18.4x    frame=27419 fps=443 q=-0.0 size=N/A time=00:19:03.60 bitrate=N/A speed=18.5x    frame=27683 fps=443 q=-0.0 size=N/A time=00:19:14.61 bitrate=N/A speed=18.5x    frame=27907 fps=443 q=-0.0 size=N/A time=00:19:23.95 bitrate=N/A speed=18.5x    frame=28136 fps=443 q=-0.0 size=N/A time=00:19:33.50 bitrate=N/A speed=18.5x    frame=28364 fps=443 q=-0.0 size=N/A time=00:19:43.01 bitrate=N/A speed=18.5x    frame=28572 fps=443 q=-0.0 size=N/A time=00:19:51.69 bitrate=N/A speed=18.5x    frame=28784 fps=443 q=-0.0 size=N/A time=00:20:00.53 bitrate=N/A speed=18.5x    frame=28999 fps=442 q=-0.0 size=N/A time=00:20:09.49 bitrate=N/A speed=18.5x    frame=29222 fps=442 q=-0.0 size=N/A time=00:20:18.80 bitrate=N/A speed=18.4x    frame=29478 fps=443 q=-0.0 size=N/A time=00:20:29.47 bitrate=N/A speed=18.5x    frame=29679 fps=442 q=-0.0 size=N/A time=00:20:37.86 bitrate=N/A speed=18.5x    frame=29953 fps=443 q=-0.0 size=N/A time=00:20:49.28 bitrate=N/A speed=18.5x    frame=30217 fps=444 q=-0.0 size=N/A time=00:21:00.30 bitrate=N/A speed=18.5x    frame=30498 fps=444 q=-0.0 size=N/A time=00:21:12.02 bitrate=N/A speed=18.5x    frame=30775 fps=445 q=-0.0 size=N/A time=00:21:23.57 bitrate=N/A speed=18.6x    frame=31039 fps=445 q=-0.0 size=N/A time=00:21:34.58 bitrate=N/A speed=18.6x    frame=31266 fps=445 q=-0.0 size=N/A time=00:21:44.05 bitrate=N/A speed=18.6x    frame=31490 fps=445 q=-0.0 size=N/A time=00:21:53.39 bitrate=N/A speed=18.6x    frame=31676 fps=445 q=-0.0 size=N/A time=00:22:01.15 bitrate=N/A speed=18.5x    frame=31897 fps=445 q=-0.0 size=N/A time=00:22:10.37 bitrate=N/A speed=18.5x    frame=32062 fps=444 q=-0.0 size=N/A time=00:22:17.25 bitrate=N/A speed=18.5x    frame=32222 fps=443 q=-0.0 size=N/A time=00:22:23.92 bitrate=N/A speed=18.5x    frame=32417 fps=442 q=-0.0 size=N/A time=00:22:32.05 bitrate=N/A speed=18.4x    frame=32588 fps=442 q=-0.0 size=N/A time=00:22:39.19 bitrate=N/A speed=18.4x    frame=32759 fps=441 q=-0.0 size=N/A time=00:22:46.32 bitrate=N/A speed=18.4x    frame=32919 fps=440 q=-0.0 size=N/A time=00:22:52.99 bitrate=N/A speed=18.3x    frame=33087 fps=439 q=-0.0 size=N/A time=00:23:00.00 bitrate=N/A speed=18.3x    frame=33257 fps=438 q=-0.0 size=N/A time=00:23:07.09 bitrate=N/A speed=18.3x    frame=33410 fps=437 q=-0.0 size=N/A time=00:23:13.47 bitrate=N/A speed=18.2x    frame=33566 fps=436 q=-0.0 size=N/A time=00:23:19.98 bitrate=N/A speed=18.2x    frame=33714 fps=435 q=-0.0 size=N/A time=00:23:26.15 bitrate=N/A speed=18.2x    frame=33875 fps=435 q=-0.0 size=N/A time=00:23:32.86 bitrate=N/A speed=18.1x    frame=34038 fps=434 q=-0.0 size=N/A time=00:23:39.66 bitrate=N/A speed=18.1x    [Parsed_psnr_10 @ 000001fe7dc79280] PSNR y:46.831845 u:49.287022 v:49.137650 average:47.490032 min:35.194412 max:inf
[out#0/null @ 000001fe70eb67c0] video:14646KiB audio:266572KiB subtitle:0KiB other streams:0KiB global headers:0KiB muxing overhead: unknown
frame=34085 fps=434 q=-0.0 Lsize=N/A time=00:23:41.62 bitrate=N/A speed=18.1x    
